<svg viewBox="0 0 680 520" xmlns="http://www.w3.org/2000/svg" preserveAspectRatio="xMidYMid slice">
  <rect width="680" height="520" fill="#2a0c14" />
  <circle cx="100" cy="70" r="28" fill="#7d1a30" opacity="0.45" />
  <circle cx="118" cy="70" r="20" fill="#ce1126" opacity="0.35" />
  <circle cx="560" cy="90" r="22" fill="#7d1a30" opacity="0.38" />
  <circle cx="578" cy="90" r="16" fill="#ce1126" opacity="0.26" />
  <rect x="10" y="210" width="65" height="310" fill="#481320" />
  <rect x="85" y="250" width="55" height="270" fill="#3f101c" />
  <rect x="148" y="270" width="70" height="250" fill="#34101a" stroke="#6c1a2f" stroke-width="0.5" />
  <rect x="460" y="240" width="75" height="280" fill="#3f101c" />
  <rect x="545" y="255" width="58" height="265" fill="#481320" />
  <rect x="610" y="200" width="70" height="320" fill="#34101a" stroke="#6c1a2f" stroke-width="0.5" />
  <rect x="18" y="225" width="9" height="11" fill="#f7c7d0" opacity="0.85" />
  <rect x="33" y="225" width="9" height="11" fill="#f7c7d0" opacity="0.35" />
  <rect x="48" y="225" width="9" height="11" fill="#481320" />
  <rect x="93" y="263" width="9" height="11" fill="#f7c7d0" opacity="0.7" />
  <rect x="108" y="263" width="9" height="11" fill="#f7c7d0" opacity="0.85" />
  <rect x="123" y="263" width="9" height="11" fill="#3f101c" />
  <rect x="156" y="283" width="10" height="12" fill="#f7c7d0" opacity="0.55" />
  <rect x="172" y="283" width="10" height="12" fill="#f7c7d0" opacity="0.75" />
  <rect x="188" y="283" width="10" height="12" fill="#34101a" />
  <rect x="468" y="253" width="9" height="11" fill="#f7c7d0" opacity="0.8" />
  <rect x="483" y="253" width="9" height="11" fill="#3f101c" />
  <rect x="498" y="253" width="9" height="11" fill="#f7c7d0" opacity="0.45" />
  <rect x="553" y="268" width="9" height="11" fill="#f7c7d0" opacity="0.5" />
  <rect x="568" y="268" width="9" height="11" fill="#f7c7d0" opacity="0.8" />
  <rect x="583" y="268" width="9" height="11" fill="#481320" />
  <rect x="618" y="213" width="9" height="11" fill="#f7c7d0" opacity="0.6" />
  <rect x="633" y="213" width="9" height="11" fill="#f7c7d0" opacity="0.4" />
  <rect x="648" y="213" width="9" height="11" fill="#34101a" />
  <rect x="0" y="310" width="680" height="210" fill="#13060a" opacity="0.5" />
</svg>
